<svg xmlns="http://www.w3.org/2000/svg" xmlns:xlink="http://www.w3.org/1999/xlink" zoomAndPan="magnify" preserveAspectRatio="xMidYMid meet" version="1.0" viewBox="114.1 166.03 147.13 55.41"><defs><g/></defs><g fill="#292929" fill-opacity="1"><g transform="translate(112.478902, 204.800377)"><g><path d="M 24.90625 -7.671875 C 25.488281 -6.648438 26.039062 -5.703125 26.5625 -4.828125 C 27.082031 -3.960938 27.5625 -3.203125 28 -2.546875 C 28.4375 -1.898438 28.804688 -1.394531 29.109375 -1.03125 C 29.421875 -0.664062 29.6875 -0.484375 29.90625 -0.484375 L 29.90625 0 L 23.546875 0 L 23.546875 -0.484375 C 23.765625 -0.484375 23.671875 -1.046875 23.265625 -2.171875 C 22.867188 -3.296875 22.164062 -4.726562 21.15625 -6.46875 L 12.890625 -20.765625 L 6.75 -20.765625 L 6.75 -4.671875 C 6.75 -3.804688 6.789062 -3.09375 6.875 -2.53125 C 6.96875 -1.96875 7.085938 -1.539062 7.234375 -1.25 C 7.378906 -0.957031 7.523438 -0.753906 7.671875 -0.640625 C 7.816406 -0.535156 7.925781 -0.484375 8 -0.484375 L 8 0 L 1.625 0 L 1.625 -0.484375 C 1.695312 -0.484375 1.804688 -0.535156 1.953125 -0.640625 C 2.097656 -0.753906 2.234375 -0.957031 2.359375 -1.25 C 2.492188 -1.539062 2.613281 -1.96875 2.71875 -2.53125 C 2.820312 -3.09375 2.875 -3.804688 2.875 -4.671875 L 2.875 -33.5 C 2.875 -34.40625 2.820312 -35.128906 2.71875 -35.671875 C 2.613281 -36.210938 2.492188 -36.628906 2.359375 -36.921875 C 2.234375 -37.210938 2.097656 -37.410156 1.953125 -37.515625 C 1.804688 -37.628906 1.695312 -37.6875 1.625 -37.6875 L 1.625 -38.171875 L 2.125 -38.171875 C 3.75 -38.203125 5.429688 -38.304688 7.171875 -38.484375 C 8.910156 -38.671875 10.582031 -38.765625 12.1875 -38.765625 C 14.9375 -38.765625 17.253906 -38.535156 19.140625 -38.078125 C 21.023438 -37.628906 22.546875 -37.003906 23.703125 -36.203125 C 24.867188 -35.410156 25.703125 -34.460938 26.203125 -33.359375 C 26.710938 -32.253906 26.96875 -31.050781 26.96875 -29.75 C 26.96875 -28.65625 26.796875 -27.632812 26.453125 -26.6875 C 26.109375 -25.75 25.546875 -24.898438 24.765625 -24.140625 C 23.984375 -23.378906 22.96875 -22.734375 21.71875 -22.203125 C 20.46875 -21.679688 18.957031 -21.296875 17.1875 -21.046875 Z M 6.75 -38.015625 L 6.75 -21.203125 L 12.1875 -21.203125 C 13.375 -21.203125 14.609375 -21.328125 15.890625 -21.578125 C 17.179688 -21.835938 18.363281 -22.289062 19.4375 -22.9375 C 20.507812 -23.59375 21.394531 -24.472656 22.09375 -25.578125 C 22.800781 -26.679688 23.15625 -28.070312 23.15625 -29.75 C 23.15625 -31.414062 22.800781 -32.800781 22.09375 -33.90625 C 21.394531 -35.007812 20.507812 -35.882812 19.4375 -36.53125 C 18.363281 -37.1875 17.179688 -37.648438 15.890625 -37.921875 C 14.609375 -38.191406 13.375 -38.328125 12.1875 -38.328125 C 11.34375 -38.328125 10.457031 -38.289062 9.53125 -38.21875 C 8.613281 -38.144531 7.6875 -38.078125 6.75 -38.015625 Z M 6.75 -38.015625 "/></g></g></g><g fill="#292929" fill-opacity="1"><g transform="translate(151.738844, 204.800377)"><g><path d="M 8.046875 -37.6875 C 7.941406 -37.6875 7.816406 -37.628906 7.671875 -37.515625 C 7.523438 -37.410156 7.382812 -37.210938 7.25 -36.921875 C 7.125 -36.628906 7.007812 -36.210938 6.90625 -35.671875 C 6.800781 -35.128906 6.75 -34.40625 6.75 -33.5 L 6.75 -4.671875 C 6.75 -3.804688 6.800781 -3.09375 6.90625 -2.53125 C 7.007812 -1.96875 7.125 -1.539062 7.25 -1.25 C 7.382812 -0.957031 7.523438 -0.753906 7.671875 -0.640625 C 7.816406 -0.535156 7.941406 -0.484375 8.046875 -0.484375 L 8.046875 0 L 1.625 0 L 1.625 -0.484375 C 1.695312 -0.484375 1.804688 -0.535156 1.953125 -0.640625 C 2.097656 -0.753906 2.234375 -0.957031 2.359375 -1.25 C 2.492188 -1.539062 2.613281 -1.96875 2.71875 -2.53125 C 2.820312 -3.09375 2.875 -3.804688 2.875 -4.671875 L 2.875 -33.5 C 2.875 -34.40625 2.820312 -35.128906 2.71875 -35.671875 C 2.613281 -36.210938 2.492188 -36.628906 2.359375 -36.921875 C 2.234375 -37.210938 2.097656 -37.410156 1.953125 -37.515625 C 1.804688 -37.628906 1.695312 -37.6875 1.625 -37.6875 L 1.625 -38.171875 L 8.046875 -38.171875 Z M 8.046875 -37.6875 "/></g></g></g><g fill="#292929" fill-opacity="1"><g transform="translate(169.140045, 204.800377)"><g><path d="M 27.890625 -38.171875 L 32.515625 -38.171875 L 32.515625 -37.6875 C 32.296875 -37.6875 32.039062 -37.582031 31.75 -37.375 C 31.457031 -37.175781 31.128906 -36.832031 30.765625 -36.34375 C 30.410156 -35.851562 30.03125 -35.207031 29.625 -34.40625 C 29.226562 -33.613281 28.832031 -32.601562 28.4375 -31.375 L 18.703125 -3.046875 L 19.734375 0 L 15.65625 0 L 5.28125 -30.28125 C 4.914062 -31.300781 4.5625 -32.265625 4.21875 -33.171875 C 3.875 -34.078125 3.546875 -34.863281 3.234375 -35.53125 C 2.921875 -36.207031 2.628906 -36.734375 2.359375 -37.109375 C 2.085938 -37.492188 1.84375 -37.6875 1.625 -37.6875 L 1.625 -38.171875 L 8.046875 -38.171875 L 8.046875 -37.6875 C 7.828125 -37.6875 7.753906 -37.1875 7.828125 -36.1875 C 7.898438 -35.1875 8.171875 -33.925781 8.640625 -32.40625 L 18.484375 -3.75 L 27.953125 -31.484375 C 29.359375 -35.617188 29.335938 -37.6875 27.890625 -37.6875 Z M 27.890625 -38.171875 "/></g></g></g><g fill="#292929" fill-opacity="1"><g transform="translate(211.009997, 204.800377)"><g><path d="M 8.046875 -37.6875 C 7.941406 -37.6875 7.816406 -37.628906 7.671875 -37.515625 C 7.523438 -37.410156 7.382812 -37.210938 7.25 -36.921875 C 7.125 -36.628906 7.007812 -36.210938 6.90625 -35.671875 C 6.800781 -35.128906 6.75 -34.40625 6.75 -33.5 L 6.75 -4.671875 C 6.75 -3.804688 6.800781 -3.09375 6.90625 -2.53125 C 7.007812 -1.96875 7.125 -1.539062 7.25 -1.25 C 7.382812 -0.957031 7.523438 -0.753906 7.671875 -0.640625 C 7.816406 -0.535156 7.941406 -0.484375 8.046875 -0.484375 L 8.046875 0 L 1.625 0 L 1.625 -0.484375 C 1.695312 -0.484375 1.804688 -0.535156 1.953125 -0.640625 C 2.097656 -0.753906 2.234375 -0.957031 2.359375 -1.25 C 2.492188 -1.539062 2.613281 -1.96875 2.71875 -2.53125 C 2.820312 -3.09375 2.875 -3.804688 2.875 -4.671875 L 2.875 -33.5 C 2.875 -34.40625 2.820312 -35.128906 2.71875 -35.671875 C 2.613281 -36.210938 2.492188 -36.628906 2.359375 -36.921875 C 2.234375 -37.210938 2.097656 -37.410156 1.953125 -37.515625 C 1.804688 -37.628906 1.695312 -37.6875 1.625 -37.6875 L 1.625 -38.171875 L 8.046875 -38.171875 Z M 8.046875 -37.6875 "/></g></g></g><g fill="#292929" fill-opacity="1"><g transform="translate(228.411196, 204.800377)"><g><path d="M 25.015625 -7.125 C 24.617188 -8.320312 24.082031 -9.488281 23.40625 -10.625 C 22.738281 -11.769531 21.953125 -12.796875 21.046875 -13.703125 C 20.140625 -14.609375 19.125 -15.359375 18 -15.953125 C 16.875 -16.554688 15.640625 -16.929688 14.296875 -17.078125 C 13.796875 -17.109375 13.269531 -17.097656 12.71875 -17.046875 C 12.175781 -16.992188 11.648438 -16.875 11.140625 -16.6875 C 10.640625 -16.507812 10.179688 -16.253906 9.765625 -15.921875 C 9.347656 -15.597656 9.046875 -15.164062 8.859375 -14.625 L 6.203125 -6.6875 C 5.472656 -4.625 5.117188 -3.070312 5.140625 -2.03125 C 5.160156 -1 5.53125 -0.484375 6.25 -0.484375 L 6.25 0 L 1.625 0 L 1.625 -0.484375 C 1.84375 -0.484375 2.097656 -0.582031 2.390625 -0.78125 C 2.679688 -0.988281 3 -1.335938 3.34375 -1.828125 C 3.6875 -2.316406 4.054688 -2.96875 4.453125 -3.78125 C 4.859375 -4.59375 5.273438 -5.613281 5.703125 -6.84375 L 15.390625 -35.1875 L 14.359375 -38.171875 L 18.484375 -38.171875 L 28.875 -7.890625 C 29.238281 -6.867188 29.59375 -5.90625 29.9375 -5 C 30.28125 -4.09375 30.601562 -3.300781 30.90625 -2.625 C 31.21875 -1.957031 31.5 -1.429688 31.75 -1.046875 C 32.007812 -0.671875 32.25 -0.484375 32.46875 -0.484375 L 32.46875 0 L 26.09375 0 L 26.09375 -0.484375 C 26.28125 -0.484375 26.34375 -0.988281 26.28125 -2 C 26.226562 -3.019531 25.953125 -4.289062 25.453125 -5.8125 Z M 9.46875 -16.265625 C 10.082031 -16.835938 10.84375 -17.207031 11.75 -17.375 C 12.65625 -17.539062 13.503906 -17.585938 14.296875 -17.515625 C 16.367188 -17.328125 18.179688 -16.632812 19.734375 -15.4375 C 21.296875 -14.238281 22.601562 -12.804688 23.65625 -11.140625 L 15.65625 -34.421875 Z M 9.46875 -16.265625 "/></g></g></g><g fill="#292929" fill-opacity="1"><g transform="translate(113.342686, 221.3238)"><g><path d="M 7.265625 -8.671875 C 7.453125 -8.671875 7.601562 -8.613281 7.71875 -8.5 C 7.832031 -8.394531 7.890625 -8.253906 7.890625 -8.078125 L 7.890625 -0.609375 C 7.878906 -0.429688 7.816406 -0.285156 7.703125 -0.171875 C 7.585938 -0.0546875 7.441406 0 7.265625 0 C 7.097656 0 6.953125 -0.0546875 6.828125 -0.171875 C 6.710938 -0.285156 6.65625 -0.429688 6.65625 -0.609375 L 6.65625 -3.8125 L 2.25 -3.8125 L 2.25 -0.609375 C 2.25 -0.429688 2.1875 -0.285156 2.0625 -0.171875 C 1.945312 -0.0546875 1.804688 0 1.640625 0 C 1.453125 0 1.300781 -0.0546875 1.1875 -0.171875 C 1.082031 -0.285156 1.03125 -0.429688 1.03125 -0.609375 L 1.03125 -8.078125 C 1.03125 -8.242188 1.085938 -8.382812 1.203125 -8.5 C 1.316406 -8.613281 1.460938 -8.671875 1.640625 -8.671875 C 1.804688 -8.671875 1.945312 -8.613281 2.0625 -8.5 C 2.1875 -8.382812 2.25 -8.242188 2.25 -8.078125 L 2.25 -4.953125 L 6.65625 -4.953125 L 6.65625 -8.078125 C 6.65625 -8.242188 6.71875 -8.382812 6.84375 -8.5 C 6.96875 -8.613281 7.109375 -8.671875 7.265625 -8.671875 Z M 7.265625 -8.671875 "/></g></g></g><g fill="#292929" fill-opacity="1"><g transform="translate(125.792939, 221.3238)"><g><path d="M 5.9375 -1.140625 C 6.101562 -1.140625 6.242188 -1.082031 6.359375 -0.96875 C 6.472656 -0.851562 6.53125 -0.71875 6.53125 -0.5625 C 6.53125 -0.394531 6.472656 -0.257812 6.359375 -0.15625 C 6.242188 -0.0507812 6.101562 0 5.9375 0 L 1.625 0 C 1.457031 0 1.316406 -0.0546875 1.203125 -0.171875 C 1.085938 -0.285156 1.03125 -0.425781 1.03125 -0.59375 L 1.03125 -8.078125 C 1.03125 -8.242188 1.085938 -8.382812 1.203125 -8.5 C 1.316406 -8.613281 1.457031 -8.671875 1.625 -8.671875 L 5.9375 -8.671875 C 6.101562 -8.671875 6.242188 -8.613281 6.359375 -8.5 C 6.472656 -8.394531 6.53125 -8.257812 6.53125 -8.09375 C 6.53125 -7.925781 6.472656 -7.789062 6.359375 -7.6875 C 6.242188 -7.582031 6.101562 -7.53125 5.9375 -7.53125 L 2.25 -7.53125 L 2.25 -5 L 5.375 -5 C 5.550781 -5 5.691406 -4.945312 5.796875 -4.84375 C 5.910156 -4.738281 5.96875 -4.601562 5.96875 -4.4375 C 5.96875 -4.257812 5.910156 -4.117188 5.796875 -4.015625 C 5.691406 -3.921875 5.550781 -3.875 5.375 -3.875 L 2.25 -3.875 L 2.25 -1.140625 Z M 5.9375 -1.140625 "/></g></g></g><g fill="#292929" fill-opacity="1"><g transform="translate(136.397557, 221.3238)"><g><path d="M 7.625 -0.984375 C 7.707031 -0.929688 7.773438 -0.859375 7.828125 -0.765625 C 7.878906 -0.679688 7.90625 -0.597656 7.90625 -0.515625 C 7.90625 -0.335938 7.847656 -0.207031 7.734375 -0.125 C 7.628906 -0.0390625 7.492188 0 7.328125 0 C 7.171875 0 7.039062 -0.03125 6.9375 -0.09375 C 6.6875 -0.238281 6.484375 -0.46875 6.328125 -0.78125 C 6.171875 -1.09375 6.09375 -1.554688 6.09375 -2.171875 C 6.09375 -2.578125 5.96875 -2.878906 5.71875 -3.078125 C 5.476562 -3.273438 5.160156 -3.375 4.765625 -3.375 L 2.25 -3.375 L 2.25 -0.59375 C 2.25 -0.414062 2.195312 -0.269531 2.09375 -0.15625 C 2 -0.0507812 1.875 0 1.71875 0 C 1.53125 0 1.367188 -0.0546875 1.234375 -0.171875 C 1.097656 -0.285156 1.03125 -0.425781 1.03125 -0.59375 L 1.03125 -8.078125 C 1.03125 -8.242188 1.085938 -8.382812 1.203125 -8.5 C 1.316406 -8.613281 1.457031 -8.671875 1.625 -8.671875 L 5.109375 -8.671875 C 5.554688 -8.671875 5.960938 -8.5625 6.328125 -8.34375 C 6.703125 -8.125 7 -7.820312 7.21875 -7.4375 C 7.445312 -7.050781 7.5625 -6.617188 7.5625 -6.140625 C 7.5625 -5.679688 7.4375 -5.25 7.1875 -4.84375 C 6.9375 -4.445312 6.617188 -4.148438 6.234375 -3.953125 C 6.535156 -3.796875 6.773438 -3.578125 6.953125 -3.296875 C 7.128906 -3.015625 7.226562 -2.6875 7.25 -2.3125 C 7.28125 -1.84375 7.316406 -1.523438 7.359375 -1.359375 C 7.398438 -1.191406 7.488281 -1.066406 7.625 -0.984375 Z M 5.078125 -4.40625 C 5.285156 -4.425781 5.484375 -4.507812 5.671875 -4.65625 C 5.859375 -4.800781 6.007812 -5 6.125 -5.25 C 6.238281 -5.507812 6.296875 -5.796875 6.296875 -6.109375 C 6.296875 -6.503906 6.171875 -6.835938 5.921875 -7.109375 C 5.679688 -7.390625 5.390625 -7.53125 5.046875 -7.53125 L 2.25 -7.53125 L 2.25 -4.40625 Z M 5.078125 -4.40625 "/></g></g></g><g fill="#292929" fill-opacity="1"><g transform="translate(148.36472, 221.3238)"><g><path d="M 2.25 -0.609375 C 2.25 -0.429688 2.1875 -0.285156 2.0625 -0.171875 C 1.945312 -0.0546875 1.804688 0 1.640625 0 C 1.453125 0 1.300781 -0.0546875 1.1875 -0.171875 C 1.082031 -0.285156 1.03125 -0.429688 1.03125 -0.609375 L 1.03125 -8.078125 C 1.03125 -8.242188 1.085938 -8.382812 1.203125 -8.5 C 1.316406 -8.613281 1.460938 -8.671875 1.640625 -8.671875 C 1.804688 -8.671875 1.945312 -8.613281 2.0625 -8.5 C 2.1875 -8.382812 2.25 -8.242188 2.25 -8.078125 Z M 2.25 -0.609375 "/></g></g></g><g fill="#292929" fill-opacity="1"><g transform="translate(155.191358, 221.3238)"><g><path d="M 6.65625 -8.671875 C 6.820312 -8.671875 6.960938 -8.617188 7.078125 -8.515625 C 7.191406 -8.410156 7.25 -8.273438 7.25 -8.109375 C 7.25 -7.929688 7.191406 -7.789062 7.078125 -7.6875 C 6.960938 -7.59375 6.820312 -7.546875 6.65625 -7.546875 L 4.453125 -7.546875 L 4.453125 -0.59375 C 4.453125 -0.425781 4.390625 -0.285156 4.265625 -0.171875 C 4.148438 -0.0546875 4 0 3.8125 0 C 3.632812 0 3.484375 -0.0546875 3.359375 -0.171875 C 3.242188 -0.285156 3.1875 -0.425781 3.1875 -0.59375 L 3.1875 -7.546875 L 0.984375 -7.546875 C 0.816406 -7.546875 0.675781 -7.597656 0.5625 -7.703125 C 0.445312 -7.804688 0.390625 -7.941406 0.390625 -8.109375 C 0.390625 -8.273438 0.445312 -8.410156 0.5625 -8.515625 C 0.675781 -8.617188 0.816406 -8.671875 0.984375 -8.671875 Z M 6.65625 -8.671875 "/></g></g></g><g fill="#292929" fill-opacity="1"><g transform="translate(166.378151, 221.3238)"><g><path d="M 7.6875 -0.765625 C 7.71875 -0.691406 7.734375 -0.613281 7.734375 -0.53125 C 7.734375 -0.363281 7.675781 -0.226562 7.5625 -0.125 C 7.445312 -0.0195312 7.316406 0.03125 7.171875 0.03125 C 7.054688 0.03125 6.953125 0 6.859375 -0.0625 C 6.765625 -0.132812 6.6875 -0.234375 6.625 -0.359375 L 5.859375 -2.1875 L 2.03125 -2.1875 L 1.28125 -0.34375 C 1.238281 -0.21875 1.164062 -0.125 1.0625 -0.0625 C 0.96875 0 0.863281 0.03125 0.75 0.03125 C 0.582031 0.03125 0.453125 -0.0078125 0.359375 -0.09375 C 0.265625 -0.1875 0.21875 -0.3125 0.21875 -0.46875 C 0.21875 -0.5 0.226562 -0.566406 0.25 -0.671875 L 3.40625 -8.328125 C 3.46875 -8.460938 3.546875 -8.5625 3.640625 -8.625 C 3.742188 -8.695312 3.863281 -8.722656 4 -8.703125 C 4.125 -8.703125 4.234375 -8.671875 4.328125 -8.609375 C 4.429688 -8.546875 4.503906 -8.453125 4.546875 -8.328125 Z M 2.5 -3.3125 L 5.390625 -3.3125 L 3.9375 -6.78125 Z M 2.5 -3.3125 "/></g></g></g><g fill="#292929" fill-opacity="1"><g transform="translate(177.874622, 221.3238)"><g><path d="M 7.390625 -4.5625 C 7.554688 -4.5625 7.695312 -4.503906 7.8125 -4.390625 C 7.925781 -4.273438 7.984375 -4.132812 7.984375 -3.96875 L 7.984375 -1.171875 C 7.984375 -0.953125 7.882812 -0.78125 7.6875 -0.65625 C 7.300781 -0.40625 6.878906 -0.210938 6.421875 -0.078125 C 5.972656 0.0546875 5.507812 0.125 5.03125 0.125 C 4.207031 0.125 3.445312 -0.0703125 2.75 -0.46875 C 2.0625 -0.863281 1.519531 -1.398438 1.125 -2.078125 C 0.726562 -2.765625 0.53125 -3.519531 0.53125 -4.34375 C 0.53125 -5.15625 0.726562 -5.898438 1.125 -6.578125 C 1.519531 -7.265625 2.0625 -7.804688 2.75 -8.203125 C 3.445312 -8.597656 4.207031 -8.796875 5.03125 -8.796875 C 5.445312 -8.796875 5.84375 -8.75 6.21875 -8.65625 C 6.601562 -8.570312 6.953125 -8.4375 7.265625 -8.25 C 7.359375 -8.195312 7.429688 -8.128906 7.484375 -8.046875 C 7.535156 -7.960938 7.5625 -7.867188 7.5625 -7.765625 C 7.5625 -7.597656 7.503906 -7.453125 7.390625 -7.328125 C 7.273438 -7.210938 7.140625 -7.15625 6.984375 -7.15625 C 6.859375 -7.15625 6.753906 -7.1875 6.671875 -7.25 C 6.128906 -7.5 5.582031 -7.625 5.03125 -7.625 C 4.4375 -7.625 3.890625 -7.476562 3.390625 -7.1875 C 2.898438 -6.894531 2.515625 -6.492188 2.234375 -5.984375 C 1.953125 -5.484375 1.8125 -4.9375 1.8125 -4.34375 C 1.8125 -3.738281 1.953125 -3.1875 2.234375 -2.6875 C 2.515625 -2.1875 2.898438 -1.785156 3.390625 -1.484375 C 3.890625 -1.191406 4.4375 -1.046875 5.03125 -1.046875 C 5.3125 -1.046875 5.601562 -1.078125 5.90625 -1.140625 C 6.21875 -1.210938 6.488281 -1.300781 6.71875 -1.40625 L 6.71875 -3.375 L 5.21875 -3.375 C 5.050781 -3.375 4.910156 -3.429688 4.796875 -3.546875 C 4.679688 -3.660156 4.625 -3.800781 4.625 -3.96875 C 4.625 -4.132812 4.679688 -4.273438 4.796875 -4.390625 C 4.910156 -4.503906 5.050781 -4.5625 5.21875 -4.5625 Z M 7.390625 -4.5625 "/></g></g></g><g fill="#292929" fill-opacity="1"><g transform="translate(190.027594, 221.3238)"><g><path d="M 5.9375 -1.140625 C 6.101562 -1.140625 6.242188 -1.082031 6.359375 -0.96875 C 6.472656 -0.851562 6.53125 -0.71875 6.53125 -0.5625 C 6.53125 -0.394531 6.472656 -0.257812 6.359375 -0.15625 C 6.242188 -0.0507812 6.101562 0 5.9375 0 L 1.625 0 C 1.457031 0 1.316406 -0.0546875 1.203125 -0.171875 C 1.085938 -0.285156 1.03125 -0.425781 1.03125 -0.59375 L 1.03125 -8.078125 C 1.03125 -8.242188 1.085938 -8.382812 1.203125 -8.5 C 1.316406 -8.613281 1.457031 -8.671875 1.625 -8.671875 L 5.9375 -8.671875 C 6.101562 -8.671875 6.242188 -8.613281 6.359375 -8.5 C 6.472656 -8.394531 6.53125 -8.257812 6.53125 -8.09375 C 6.53125 -7.925781 6.472656 -7.789062 6.359375 -7.6875 C 6.242188 -7.582031 6.101562 -7.53125 5.9375 -7.53125 L 2.25 -7.53125 L 2.25 -5 L 5.375 -5 C 5.550781 -5 5.691406 -4.945312 5.796875 -4.84375 C 5.910156 -4.738281 5.96875 -4.601562 5.96875 -4.4375 C 5.96875 -4.257812 5.910156 -4.117188 5.796875 -4.015625 C 5.691406 -3.921875 5.550781 -3.875 5.375 -3.875 L 2.25 -3.875 L 2.25 -1.140625 Z M 5.9375 -1.140625 "/></g></g></g><g fill="#292929" fill-opacity="1"><g transform="translate(200.632216, 221.3238)"><g/></g></g><g fill="#292929" fill-opacity="1"><g transform="translate(207.607504, 221.3238)"><g><path d="M 7.265625 -8.671875 C 7.453125 -8.671875 7.601562 -8.613281 7.71875 -8.5 C 7.832031 -8.394531 7.890625 -8.253906 7.890625 -8.078125 L 7.890625 -0.609375 C 7.878906 -0.429688 7.816406 -0.285156 7.703125 -0.171875 C 7.585938 -0.0546875 7.441406 0 7.265625 0 C 7.097656 0 6.953125 -0.0546875 6.828125 -0.171875 C 6.710938 -0.285156 6.65625 -0.429688 6.65625 -0.609375 L 6.65625 -3.8125 L 2.25 -3.8125 L 2.25 -0.609375 C 2.25 -0.429688 2.1875 -0.285156 2.0625 -0.171875 C 1.945312 -0.0546875 1.804688 0 1.640625 0 C 1.453125 0 1.300781 -0.0546875 1.1875 -0.171875 C 1.082031 -0.285156 1.03125 -0.429688 1.03125 -0.609375 L 1.03125 -8.078125 C 1.03125 -8.242188 1.085938 -8.382812 1.203125 -8.5 C 1.316406 -8.613281 1.460938 -8.671875 1.640625 -8.671875 C 1.804688 -8.671875 1.945312 -8.613281 2.0625 -8.5 C 2.1875 -8.382812 2.25 -8.242188 2.25 -8.078125 L 2.25 -4.953125 L 6.65625 -4.953125 L 6.65625 -8.078125 C 6.65625 -8.242188 6.71875 -8.382812 6.84375 -8.5 C 6.96875 -8.613281 7.109375 -8.671875 7.265625 -8.671875 Z M 7.265625 -8.671875 "/></g></g></g><g fill="#292929" fill-opacity="1"><g transform="translate(220.057759, 221.3238)"><g><path d="M 8.90625 -4.34375 C 8.90625 -3.5 8.722656 -2.738281 8.359375 -2.0625 C 8.003906 -1.382812 7.507812 -0.847656 6.875 -0.453125 C 6.238281 -0.0664062 5.519531 0.125 4.71875 0.125 C 3.914062 0.125 3.195312 -0.0664062 2.5625 -0.453125 C 1.925781 -0.847656 1.425781 -1.382812 1.0625 -2.0625 C 0.707031 -2.738281 0.53125 -3.5 0.53125 -4.34375 C 0.53125 -5.175781 0.707031 -5.929688 1.0625 -6.609375 C 1.425781 -7.285156 1.925781 -7.816406 2.5625 -8.203125 C 3.195312 -8.597656 3.914062 -8.796875 4.71875 -8.796875 C 5.519531 -8.796875 6.238281 -8.597656 6.875 -8.203125 C 7.507812 -7.816406 8.003906 -7.285156 8.359375 -6.609375 C 8.722656 -5.929688 8.90625 -5.175781 8.90625 -4.34375 Z M 7.625 -4.34375 C 7.625 -4.957031 7.5 -5.515625 7.25 -6.015625 C 7.007812 -6.515625 6.664062 -6.90625 6.21875 -7.1875 C 5.78125 -7.476562 5.28125 -7.625 4.71875 -7.625 C 4.15625 -7.625 3.648438 -7.484375 3.203125 -7.203125 C 2.765625 -6.921875 2.421875 -6.53125 2.171875 -6.03125 C 1.929688 -5.53125 1.8125 -4.96875 1.8125 -4.34375 C 1.8125 -3.71875 1.929688 -3.15625 2.171875 -2.65625 C 2.421875 -2.15625 2.765625 -1.757812 3.203125 -1.46875 C 3.648438 -1.1875 4.15625 -1.046875 4.71875 -1.046875 C 5.28125 -1.046875 5.78125 -1.1875 6.21875 -1.46875 C 6.664062 -1.757812 7.007812 -2.15625 7.25 -2.65625 C 7.5 -3.15625 7.625 -3.71875 7.625 -4.34375 Z M 7.625 -4.34375 "/></g></g></g><g fill="#292929" fill-opacity="1"><g transform="translate(233.040645, 221.3238)"><g><path d="M 6.65625 -8.671875 C 6.820312 -8.671875 6.960938 -8.617188 7.078125 -8.515625 C 7.191406 -8.410156 7.25 -8.273438 7.25 -8.109375 C 7.25 -7.929688 7.191406 -7.789062 7.078125 -7.6875 C 6.960938 -7.59375 6.820312 -7.546875 6.65625 -7.546875 L 4.453125 -7.546875 L 4.453125 -0.59375 C 4.453125 -0.425781 4.390625 -0.285156 4.265625 -0.171875 C 4.148438 -0.0546875 4 0 3.8125 0 C 3.632812 0 3.484375 -0.0546875 3.359375 -0.171875 C 3.242188 -0.285156 3.1875 -0.425781 3.1875 -0.59375 L 3.1875 -7.546875 L 0.984375 -7.546875 C 0.816406 -7.546875 0.675781 -7.597656 0.5625 -7.703125 C 0.445312 -7.804688 0.390625 -7.941406 0.390625 -8.109375 C 0.390625 -8.273438 0.445312 -8.410156 0.5625 -8.515625 C 0.675781 -8.617188 0.816406 -8.671875 0.984375 -8.671875 Z M 6.65625 -8.671875 "/></g></g></g><g fill="#292929" fill-opacity="1"><g transform="translate(244.227439, 221.3238)"><g><path d="M 5.9375 -1.140625 C 6.101562 -1.140625 6.242188 -1.082031 6.359375 -0.96875 C 6.472656 -0.851562 6.53125 -0.71875 6.53125 -0.5625 C 6.53125 -0.394531 6.472656 -0.257812 6.359375 -0.15625 C 6.242188 -0.0507812 6.101562 0 5.9375 0 L 1.625 0 C 1.457031 0 1.316406 -0.0546875 1.203125 -0.171875 C 1.085938 -0.285156 1.03125 -0.425781 1.03125 -0.59375 L 1.03125 -8.078125 C 1.03125 -8.242188 1.085938 -8.382812 1.203125 -8.5 C 1.316406 -8.613281 1.457031 -8.671875 1.625 -8.671875 L 5.9375 -8.671875 C 6.101562 -8.671875 6.242188 -8.613281 6.359375 -8.5 C 6.472656 -8.394531 6.53125 -8.257812 6.53125 -8.09375 C 6.53125 -7.925781 6.472656 -7.789062 6.359375 -7.6875 C 6.242188 -7.582031 6.101562 -7.53125 5.9375 -7.53125 L 2.25 -7.53125 L 2.25 -5 L 5.375 -5 C 5.550781 -5 5.691406 -4.945312 5.796875 -4.84375 C 5.910156 -4.738281 5.96875 -4.601562 5.96875 -4.4375 C 5.96875 -4.257812 5.910156 -4.117188 5.796875 -4.015625 C 5.691406 -3.921875 5.550781 -3.875 5.375 -3.875 L 2.25 -3.875 L 2.25 -1.140625 Z M 5.9375 -1.140625 "/></g></g></g><g fill="#292929" fill-opacity="1"><g transform="translate(254.83206, 221.3238)"><g><path d="M 5.8125 -1.15625 C 5.988281 -1.15625 6.128906 -1.097656 6.234375 -0.984375 C 6.347656 -0.878906 6.40625 -0.738281 6.40625 -0.5625 C 6.40625 -0.40625 6.347656 -0.269531 6.234375 -0.15625 C 6.128906 -0.0507812 5.988281 0 5.8125 0 L 1.625 0 C 1.445312 0 1.300781 -0.0546875 1.1875 -0.171875 C 1.082031 -0.285156 1.03125 -0.425781 1.03125 -0.59375 L 1.03125 -8.078125 C 1.03125 -8.242188 1.085938 -8.382812 1.203125 -8.5 C 1.316406 -8.613281 1.460938 -8.671875 1.640625 -8.671875 C 1.804688 -8.671875 1.945312 -8.613281 2.0625 -8.5 C 2.1875 -8.382812 2.25 -8.242188 2.25 -8.078125 L 2.25 -1.15625 Z M 5.8125 -1.15625 "/></g></g></g></svg>